<!-- Generated by IcoMoon.io -->
<svg version="1.1" xmlns="http://www.w3.org/2000/svg" width="32" height="32" viewBox="0 0 32 32">
<title>instagram</title>
<path fill="#fff" d="M16 10.221c-1.088 0-2.151 0.323-3.056 0.927s-1.609 1.463-2.026 2.468c-0.416 1.005-0.525 2.111-0.313 3.178s0.736 2.047 1.505 2.816 1.749 1.293 2.816 1.505c1.067 0.212 2.173 0.103 3.178-0.313s1.864-1.121 2.468-2.026 0.927-1.968 0.927-3.056c-0.002-1.458-0.582-2.856-1.613-3.887s-2.429-1.611-3.887-1.613zM16 20.221c-0.89 0-1.76-0.264-2.5-0.758s-1.317-1.197-1.657-2.020c-0.341-0.822-0.43-1.727-0.256-2.6s0.602-1.675 1.232-2.304c0.629-0.629 1.431-1.058 2.304-1.232s1.778-0.085 2.6 0.256c0.822 0.341 1.525 0.917 2.020 1.657s0.758 1.61 0.758 2.5c-0.001 1.193-0.476 2.337-1.32 3.181s-1.987 1.318-3.181 1.32zM21.5 3.721h-11c-1.723 0.002-3.376 0.687-4.594 1.906s-1.904 2.871-1.906 4.594v11c0.002 1.723 0.687 3.375 1.906 4.594s2.871 1.904 4.594 1.906h11c1.723-0.002 3.375-0.687 4.594-1.906s1.904-2.871 1.906-4.594v-11c-0.002-1.723-0.687-3.376-1.906-4.594s-2.871-1.904-4.594-1.906zM27 21.221c-0.002 1.458-0.582 2.856-1.613 3.887s-2.429 1.611-3.887 1.613h-11c-1.458-0.002-2.856-0.582-3.887-1.613s-1.611-2.429-1.613-3.887v-11c0.002-1.458 0.582-2.856 1.613-3.887s2.429-1.611 3.887-1.613h11c1.458 0.002 2.856 0.582 3.887 1.613s1.611 2.429 1.613 3.887v11zM23.5 9.221c0 0.198-0.059 0.391-0.168 0.556s-0.266 0.293-0.449 0.368-0.384 0.095-0.578 0.057c-0.194-0.039-0.372-0.134-0.512-0.274s-0.235-0.318-0.274-0.512c-0.039-0.194-0.019-0.395 0.057-0.578s0.204-0.339 0.368-0.449c0.164-0.11 0.358-0.168 0.556-0.168 0.265 0 0.519 0.106 0.707 0.293s0.293 0.442 0.293 0.707z"></path>
</svg>
