<svg width="50" height="50" fill="red" xmlns="http://www.w3.org/2000/svg"><circle cx="24.808" cy="25.134" r="24.215" fill="url(#a)"/><mask id="b" maskUnits="userSpaceOnUse" x="11.354" y="10.297" width="26" height="26" fill="#000"><path fill="#fff" d="M11.354 10.297h26v26h-26z"/><path d="M24.468 11.297a.23.23 0 0 0-.115.03l-11.891 6.918a.216.216 0 0 0 .109.402h1.946v1.514a.216.216 0 0 0 .216.216h.216v11.675h-.216a.216.216 0 0 0-.216.216v1.514H12.57a.217.217 0 0 0-.216.216v1.297a.217.217 0 0 0 .216.216h23.782a.217.217 0 0 0 .216-.216v-1.297a.216.216 0 0 0-.216-.216h-1.946v-1.514a.216.216 0 0 0-.216-.216h-.216V20.377h.216a.217.217 0 0 0 .216-.216v-1.514h1.946a.217.217 0 0 0 .2-.298.217.217 0 0 0-.091-.104l-11.891-6.919a.216.216 0 0 0-.103-.03Zm-.006.467 11.088 6.451H13.373l11.089-6.451Zm-9.513 6.884h4.324v1.297h-4.324v-1.297Zm4.756 0h2.162v1.513a.217.217 0 0 0 .217.216h.216v11.675h-.216a.217.217 0 0 0-.217.216v1.514h-2.162v-1.514a.216.216 0 0 0-.216-.216h-.216V20.377h.216a.217.217 0 0 0 .216-.216v-1.514Zm2.595 0h4.324v1.297H22.3v-1.297Zm4.756 0h2.162v1.513a.217.217 0 0 0 .216.216h.217v11.675h-.216a.217.217 0 0 0-.217.216v1.514h-2.162v-1.514a.216.216 0 0 0-.216-.216h-.216V20.377h.216a.217.217 0 0 0 .216-.216v-1.514Zm2.595 0h4.324v1.297H29.65v-1.297Zm-14.27 1.73h.865v11.674h-.865V20.377Zm1.297 0h.865v11.674h-.864V20.377Zm1.298 0h.865v11.674h-.865V20.377Zm4.756 0h.865v11.674h-.865V20.377Zm1.297 0h.865v11.674h-.865V20.377Zm1.298 0h.864v11.674h-.864V20.377Zm4.756 0h.865v11.674h-.865V20.377Zm1.297 0h.865v11.674h-.865V20.377Zm1.298 0h.864v11.674h-.864V20.377Zm-17.73 12.106h4.325v1.298h-4.324v-1.297Zm7.352 0h4.324v1.298H22.3v-1.297Zm7.35 0h4.325v1.298H29.65v-1.297Zm-16.863 1.73h23.35v.865h-23.35v-.865Z"/></mask><path d="M24.468 11.297a.23.23 0 0 0-.115.03l-11.891 6.918a.216.216 0 0 0 .109.402h1.946v1.514a.216.216 0 0 0 .216.216h.216v11.675h-.216a.216.216 0 0 0-.216.216v1.514H12.57a.217.217 0 0 0-.216.216v1.297a.217.217 0 0 0 .216.216h23.782a.217.217 0 0 0 .216-.216v-1.297a.216.216 0 0 0-.216-.216h-1.946v-1.514a.216.216 0 0 0-.216-.216h-.216V20.377h.216a.217.217 0 0 0 .216-.216v-1.514h1.946a.217.217 0 0 0 .2-.298.217.217 0 0 0-.091-.104l-11.891-6.919a.216.216 0 0 0-.103-.03Zm-.006.467 11.088 6.451H13.373l11.089-6.451Zm-9.513 6.884h4.324v1.297h-4.324v-1.297Zm4.756 0h2.162v1.513a.217.217 0 0 0 .217.216h.216v11.675h-.216a.217.217 0 0 0-.217.216v1.514h-2.162v-1.514a.216.216 0 0 0-.216-.216h-.216V20.377h.216a.217.217 0 0 0 .216-.216v-1.514Zm2.595 0h4.324v1.297H22.3v-1.297Zm4.756 0h2.162v1.513a.217.217 0 0 0 .216.216h.217v11.675h-.216a.217.217 0 0 0-.217.216v1.514h-2.162v-1.514a.216.216 0 0 0-.216-.216h-.216V20.377h.216a.217.217 0 0 0 .216-.216v-1.514Zm2.595 0h4.324v1.297H29.65v-1.297Zm-14.27 1.73h.865v11.674h-.865V20.377Zm1.297 0h.865v11.674h-.864V20.377Zm1.298 0h.865v11.674h-.865V20.377Zm4.756 0h.865v11.674h-.865V20.377Zm1.297 0h.865v11.674h-.865V20.377Zm1.298 0h.864v11.674h-.864V20.377Zm4.756 0h.865v11.674h-.865V20.377Zm1.297 0h.865v11.674h-.865V20.377Zm1.298 0h.864v11.674h-.864V20.377Zm-17.73 12.106h4.325v1.298h-4.324v-1.297Zm7.352 0h4.324v1.298H22.3v-1.297Zm7.35 0h4.325v1.298H29.65v-1.297Zm-16.863 1.73h23.35v.865h-23.35v-.865Z" fill="#fff"/><path d="M24.468 11.297a.23.23 0 0 0-.115.03l-11.891 6.918a.216.216 0 0 0 .109.402h1.946v1.514a.216.216 0 0 0 .216.216h.216v11.675h-.216a.216.216 0 0 0-.216.216v1.514H12.57a.217.217 0 0 0-.216.216v1.297a.217.217 0 0 0 .216.216h23.782a.217.217 0 0 0 .216-.216v-1.297a.216.216 0 0 0-.216-.216h-1.946v-1.514a.216.216 0 0 0-.216-.216h-.216V20.377h.216a.217.217 0 0 0 .216-.216v-1.514h1.946a.217.217 0 0 0 .2-.298.217.217 0 0 0-.091-.104l-11.891-6.919a.216.216 0 0 0-.103-.03Zm-.006.467 11.088 6.451H13.373l11.089-6.451Zm-9.513 6.884h4.324v1.297h-4.324v-1.297Zm4.756 0h2.162v1.513a.217.217 0 0 0 .217.216h.216v11.675h-.216a.217.217 0 0 0-.217.216v1.514h-2.162v-1.514a.216.216 0 0 0-.216-.216h-.216V20.377h.216a.217.217 0 0 0 .216-.216v-1.514Zm2.595 0h4.324v1.297H22.3v-1.297Zm4.756 0h2.162v1.513a.217.217 0 0 0 .216.216h.217v11.675h-.216a.217.217 0 0 0-.217.216v1.514h-2.162v-1.514a.216.216 0 0 0-.216-.216h-.216V20.377h.216a.217.217 0 0 0 .216-.216v-1.514Zm2.595 0h4.324v1.297H29.65v-1.297Zm-14.27 1.73h.865v11.674h-.865V20.377Zm1.297 0h.865v11.674h-.864V20.377Zm1.298 0h.865v11.674h-.865V20.377Zm4.756 0h.865v11.674h-.865V20.377Zm1.297 0h.865v11.674h-.865V20.377Zm1.298 0h.864v11.674h-.864V20.377Zm4.756 0h.865v11.674h-.865V20.377Zm1.297 0h.865v11.674h-.865V20.377Zm1.298 0h.864v11.674h-.864V20.377Zm-17.73 12.106h4.325v1.298h-4.324v-1.297Zm7.352 0h4.324v1.298H22.3v-1.297Zm7.35 0h4.325v1.298H29.65v-1.297Zm-16.863 1.73h23.35v.865h-23.35v-.865Z" stroke="#fff" stroke-width=".2" mask="url(#b)"/><defs><linearGradient id="a" x1="57.324" y1="-13.61" x2="-8.401" y2="53.499" gradientUnits="userSpaceOnUse"><stop stop-color="#7B1931"/><stop offset="1" stop-color="#E05226"/></linearGradient></defs></svg>