<svg width="43" height="43" viewBox="0 0 43 43" fill="none" xmlns="http://www.w3.org/2000/svg">
<path d="M21.5 13.7344C20.0383 13.7344 18.6094 14.1678 17.394 14.9799C16.1786 15.792 15.2313 16.9463 14.672 18.2967C14.1126 19.6472 13.9662 21.1332 14.2514 22.5668C14.5366 24.0005 15.2404 25.3174 16.274 26.351C17.3076 27.3846 18.6245 28.0884 20.0582 28.3736C21.4918 28.6588 22.9778 28.5124 24.3283 27.953C25.6787 27.3937 26.833 26.4464 27.6451 25.231C28.4572 24.0156 28.8906 22.5867 28.8906 21.125C28.8884 19.1656 28.109 17.287 26.7235 15.9015C25.338 14.516 23.4594 13.7366 21.5 13.7344ZM21.5 27.1719C20.304 27.1719 19.1349 26.8172 18.1405 26.1528C17.1461 25.4884 16.3711 24.544 15.9134 23.439C15.4557 22.3341 15.336 21.1183 15.5693 19.9453C15.8026 18.7723 16.3785 17.6949 17.2242 16.8492C18.0699 16.0035 19.1473 15.4276 20.3203 15.1943C21.4933 14.961 22.7091 15.0807 23.814 15.5384C24.919 15.9961 25.8634 16.7711 26.5278 17.7655C27.1922 18.7599 27.5469 19.929 27.5469 21.125C27.5451 22.7282 26.9074 24.2652 25.7738 25.3988C24.6402 26.5324 23.1032 27.1701 21.5 27.1719ZM28.8906 5H14.1094C11.7937 5.00262 9.57358 5.92369 7.93614 7.56114C6.29869 9.19858 5.37762 11.4187 5.375 13.7344V28.5156C5.37762 30.8313 6.29869 33.0514 7.93614 34.6889C9.57358 36.3263 11.7937 37.2474 14.1094 37.25H28.8906C31.2063 37.2474 33.4264 36.3263 35.0639 34.6889C36.7013 33.0514 37.6224 30.8313 37.625 28.5156V13.7344C37.6224 11.4187 36.7013 9.19858 35.0639 7.56114C33.4264 5.92369 31.2063 5.00262 28.8906 5ZM36.2812 28.5156C36.279 30.4751 35.4997 32.3536 34.1141 33.7391C32.7286 35.1247 30.8501 35.904 28.8906 35.9062H14.1094C12.1499 35.904 10.2714 35.1247 8.88587 33.7391C7.50034 32.3536 6.72097 30.4751 6.71875 28.5156V13.7344C6.72097 11.7749 7.50034 9.8964 8.88587 8.51087C10.2714 7.12534 12.1499 6.34597 14.1094 6.34375H28.8906C30.8501 6.34597 32.7286 7.12534 34.1141 8.51087C35.4997 9.8964 36.279 11.7749 36.2812 13.7344V28.5156ZM31.5781 12.3906C31.5781 12.6564 31.4993 12.9162 31.3517 13.1372C31.204 13.3582 30.9941 13.5304 30.7486 13.6321C30.5031 13.7338 30.2329 13.7604 29.9722 13.7086C29.7116 13.6567 29.4721 13.5287 29.2842 13.3408C29.0963 13.1529 28.9683 12.9134 28.9164 12.6528C28.8646 12.3921 28.8912 12.1219 28.9929 11.8764C29.0946 11.6309 29.2668 11.421 29.4878 11.2733C29.7088 11.1257 29.9686 11.0469 30.2344 11.0469C30.5906 11.0473 30.9322 11.189 31.1841 11.4409C31.436 11.6928 31.5777 12.0344 31.5781 12.3906Z" fill="white"/>
</svg>
